# Blender 5.0.1
# www.blender.org
mtllib 11222333.mtl
o 1
v -0.671875 0.000000 0.671875
v 0.671875 0.000000 0.671875
v -0.671875 0.000000 -0.671875
v 0.671875 0.000000 -0.671875
v -0.916667 0.000000 0.000000
v 0.000000 0.000000 0.916667
v 0.916667 0.000000 0.000000
v 0.000000 0.000000 -0.916667
v 0.000000 0.000000 -0.000000
vn -0.0000 1.0000 -0.0000
vt 0.000000 0.000000
vt 0.500000 0.000000
vt 0.500000 0.500000
vt 0.000000 0.500000
vt 1.000000 0.000000
vt 1.000000 0.500000
vt 1.000000 1.000000
vt 0.500000 1.000000
vt 0.000000 1.000000
s 0
f 1/1/1 6/2/1 9/3/1 5/4/1
f 6/2/1 2/5/1 7/6/1 9/3/1
f 9/3/1 7/6/1 4/7/1 8/8/1
f 5/4/1 9/3/1 8/8/1 3/9/1
