# Blender 5.0.1
# www.blender.org
mtllib flo.mtl
o Plane
v -0.188244 0.000000 0.181420
v 0.186139 0.000000 0.192094
v -0.273675 0.000000 -0.137129
v 0.278747 0.000000 -0.137058
v -0.277768 0.000000 -0.115315
v -0.159414 0.000000 0.196715
v 0.214990 0.000000 0.158454
v 0.001105 0.000547 -0.319879
v 0.000000 0.000000 -0.000000
v 0.273689 0.000000 -0.166516
v -0.024194 0.000000 -0.313800
v 0.001105 0.000547 -0.319879
v 0.273689 0.000000 -0.166516
v 0.100684 0.045067 -0.392454
v 0.291525 0.044521 -0.285082
v 0.396158 0.044521 -0.060442
v 0.353160 0.044521 0.138852
v 0.132421 0.044521 0.302682
v -0.107334 0.044521 0.307304
v -0.320298 0.044521 0.164805
v -0.375082 0.044521 -0.016782
v -0.303364 0.044521 -0.258764
v -0.145233 0.044521 -0.370745
v -0.396292 0.045912 0.119969
v -0.413445 0.045912 0.063114
v 0.051932 0.045912 0.363437
v -0.026845 0.045912 0.368059
v 0.443909 0.045912 0.010742
v 0.425305 0.045912 0.096972
v 0.202164 0.046459 -0.414977
v 0.273468 0.045912 -0.374860
v -0.276298 0.045912 -0.338991
v -0.232824 0.045912 -0.369778
v -0.306631 0.025859 -0.146264
v -0.311197 0.025859 -0.121927
v -0.211319 0.025859 0.209124
v -0.179155 0.025859 0.226188
v 0.206361 0.025859 0.221032
v 0.238548 0.025859 0.183502
v 0.309678 0.025859 -0.146185
v 0.304036 0.025859 -0.179050
v -0.000072 0.026405 -0.350149
v -0.028297 0.025859 -0.343368
v 0.304036 0.025859 -0.179050
v -0.000072 0.026405 -0.350149
v 0.323934 0.070379 -0.311328
v 0.111023 0.070926 -0.431117
v 0.392698 0.070379 0.161633
v 0.440668 0.070379 -0.060709
v -0.121053 0.070379 0.349566
v 0.146430 0.070379 0.344410
v -0.419765 0.070379 -0.012000
v -0.358645 0.070379 0.190587
v -0.163334 0.070379 -0.406898
v -0.339752 0.070379 -0.281966
v -0.462564 0.071771 0.077136
v -0.443428 0.071771 0.140567
v -0.031255 0.071771 0.417348
v 0.056632 0.071771 0.412191
v 0.473186 0.071771 0.114910
v 0.493942 0.071771 0.018707
v 0.303789 0.071771 -0.411488
v 0.224239 0.072318 -0.456246
v -0.261055 0.071771 -0.405818
v -0.309557 0.071771 -0.371472
v -0.265502 0.052824 -0.134667
v -0.269478 0.052824 -0.113474
v -0.182501 0.052824 0.174819
v -0.154492 0.052824 0.189679
v 0.181231 0.052824 0.185189
v 0.209261 0.052824 0.152506
v 0.271204 0.052824 -0.134598
v 0.266290 0.052824 -0.163218
v 0.001461 0.053371 -0.312218
v -0.023118 0.052824 -0.306313
v 0.000387 0.101702 -0.001440
v 0.266290 0.052824 -0.163218
v 0.001461 0.053371 -0.312218
v 0.283618 0.097345 -0.278411
v 0.098207 0.097891 -0.382728
v 0.343501 0.097345 0.133462
v 0.385275 0.097345 -0.060162
v -0.103894 0.097345 0.297122
v 0.129041 0.097345 0.292631
v -0.364024 0.097345 -0.017744
v -0.310799 0.097345 0.158677
v -0.140714 0.097345 -0.361637
v -0.294346 0.097345 -0.252842
v -0.401296 0.098737 0.059879
v -0.384630 0.098737 0.115117
v -0.025694 0.098737 0.356148
v 0.050842 0.098737 0.351658
v 0.413593 0.098737 0.092774
v 0.431668 0.098737 0.008997
v 0.266076 0.098737 -0.365635
v 0.196800 0.099283 -0.404611
v -0.225814 0.098737 -0.360697
v -0.268051 0.098737 -0.330787
vn -0.0000 -1.0000 -0.0000
vn -0.0010 -1.0000 -0.0017
vn 0.0212 -0.9998 -0.0016
vn -0.0000 1.0000 -0.0000
vn 0.1794 -0.9293 -0.3227
vn 0.3147 -0.9468 0.0679
vn 0.0059 -0.9276 0.3735
vn -0.3291 -0.9391 0.0993
vn -0.2064 -0.9340 -0.2915
vn -0.0223 -0.9997 0.0067
vn 0.0007 -0.9997 0.0229
vn 0.0220 -0.9997 0.0048
vn 0.0069 -0.9998 -0.0197
vn -0.0161 -0.9996 -0.0228
vn 0.0073 0.8566 -0.5159
vn 0.6688 0.6618 0.3387
vn -0.6122 0.6875 0.3906
vn -0.2465 0.9045 -0.3480
vn 0.5004 0.6370 -0.5864
vn -0.1242 0.8516 -0.5092
vn 0.5042 0.8590 -0.0887
vn 0.1324 0.6879 0.7136
vn 0.2103 0.9082 -0.3619
vn -0.3563 0.6763 -0.6447
vn 0.4170 0.8594 -0.2958
vn 0.2335 0.8721 0.4300
vn 0.7156 0.6940 0.0799
vn 0.4073 0.8439 0.3493
vn 0.3851 0.9191 0.0831
vn -0.7234 0.6862 0.0759
vn 0.2901 0.8847 0.3649
vn -0.2457 0.8516 0.4630
vn -0.2885 0.8861 0.3628
vn 0.0274 -0.8842 0.4663
vn 0.5040 -0.7961 -0.3351
vn -0.3046 -0.8539 0.4220
vn -0.2770 -0.8066 0.5221
vn 0.3061 -0.8524 0.4239
vn -0.3030 -0.8345 0.4603
vn 0.4449 -0.8904 0.0960
vn 0.4579 -0.7976 0.3927
vn 0.3017 -0.8331 0.4636
vn 0.2829 -0.8411 0.4609
vn 0.4761 -0.8251 -0.3041
vn -0.5399 -0.8218 -0.1822
vn 0.2325 -0.8750 -0.4246
vn -0.3225 -0.8381 0.4400
vn 0.5546 -0.8229 -0.1236
vn -0.1165 -0.8116 -0.5724
vn 0.0209 -0.7822 -0.6226
vn -0.2845 -0.8705 -0.4017
vn -0.5441 -0.8250 -0.1527
vn 0.5427 -0.8140 -0.2073
vn -0.0186 -0.8184 -0.5743
vn -0.4324 -0.8922 0.1305
vn -0.1083 -0.7882 -0.6058
vn -0.4901 -0.8530 -0.1793
vn 0.6191 -0.7781 -0.1063
vn -0.5048 -0.8324 -0.2287
vn -0.1385 -0.7553 -0.6406
vn -0.2760 -0.8531 0.4427
vn -0.5942 -0.7966 -0.1115
vn 0.3175 -0.8230 0.4710
vn -0.0930 0.9801 0.1753
vn 0.0033 0.9682 0.2503
vn 0.0880 0.9843 -0.1528
vn -0.1656 0.9857 -0.0311
vn 0.1641 0.9860 -0.0282
vn 0.1977 0.9793 0.0427
vn -0.2024 0.9774 0.0611
vn -0.1058 0.9831 -0.1495
vn -0.0588 0.9864 -0.1536
vn 0.1409 0.9826 0.1208
vn -0.1839 0.9256 0.3308
vn -0.3229 0.9439 -0.0697
vn -0.0060 0.9238 -0.3828
vn 0.3375 0.9358 -0.1018
vn 0.2117 0.9305 0.2989
vn 0.0229 0.9997 -0.0069
vn -0.0007 0.9997 -0.0236
vn -0.0227 0.9997 -0.0049
vn -0.0071 0.9998 0.0202
vn 0.0166 0.9996 0.0235
vn -0.3735 0.9208 0.1127
vn -0.6153 0.6299 -0.4740
vn -0.4423 0.8868 -0.1345
vn 0.5521 0.8284 -0.0948
vn -0.4442 0.8665 -0.2277
vn -0.1532 0.8087 -0.5679
vn -0.2263 0.8836 0.4099
vn -0.5260 0.8447 -0.0987
vn -0.1005 0.6653 0.7397
vn 0.0238 0.9140 0.4049
vn 0.2594 0.6184 -0.7418
vt 0.320441 0.067828
vt 0.293321 0.239974
vt 0.303043 0.071099
vt 0.132957 0.172814
vt 0.471354 0.388257
vt 0.134516 0.413323
vt 0.472895 0.161666
vt 0.478916 0.172906
vt 0.127559 0.392148
vt 0.129122 0.198265
vt 0.477289 0.368636
vt 0.469871 0.391198
vt 0.138787 0.416037
vt 0.404127 0.435182
vt 0.219317 0.449432
vt 0.037522 0.341706
vt 0.051828 0.211099
vt 0.122585 0.093711
vt 0.248453 0.021914
vt 0.379361 0.014802
vt 0.481700 0.071608
vt 0.547874 0.188070
vt 0.557952 0.312931
vt 0.431007 -0.000000
vt 0.464139 0.017612
vt 0.147318 0.035552
vt 0.189043 0.010166
vt 0.002505 0.294296
vt 0.009991 0.238246
vt 0.342118 0.457768
vt 0.280539 0.465609
vt 0.582050 0.224974
vt 0.586097 0.259695
vt 0.559054 0.584793
vt 0.602353 0.632211
vt 0.561993 0.630011
vt 0.520567 0.587285
vt 0.186576 0.476023
vt 0.249393 0.481557
vt 0.251139 0.515694
vt 0.221964 0.559946
vt 0.583625 0.711405
vt 0.531980 0.772832
vt 0.500355 0.762255
vt 0.552998 0.710048
vt 0.601797 0.665586
vt 0.569118 0.661794
vt 0.454470 0.518436
vt 0.436171 0.568513
vt 0.331281 0.472555
vt 0.384215 0.473029
vt 0.384487 0.511045
vt 0.338690 0.490814
vt 0.439591 0.473165
vt 0.440151 0.474903
vt 0.422404 0.561871
vt 0.421289 0.559033
vt 0.290501 0.477864
vt 0.288464 0.493061
vt 0.185949 0.476467
vt 0.221364 0.562123
vt 0.431784 0.967435
vt 0.351573 0.934271
vt 0.346810 0.898574
vt 0.416253 0.934066
vt 0.528208 0.794033
vt 0.530529 0.896310
vt 0.507107 0.864432
vt 0.496523 0.776074
vt 0.030509 0.614568
vt 0.070543 0.572732
vt 0.114596 0.574460
vt 0.071067 0.612359
vt 0.053437 0.706492
vt 0.029623 0.668353
vt 0.062962 0.664910
vt 0.087639 0.704642
vt 0.123191 0.883201
vt 0.125722 0.798796
vt 0.153669 0.780752
vt 0.147863 0.856666
vt 0.117882 0.765145
vt 0.150333 0.753299
vt 0.325662 0.935912
vt 0.250076 0.967637
vt 0.264756 0.934889
vt 0.327650 0.896781
vt 0.147389 0.943253
vt 0.169170 0.911548
vt 0.189179 0.968217
vt 0.205864 0.937238
vt 0.184097 1.000000
vt 0.120291 0.955552
vt 0.080295 0.545563
vt 0.163482 0.494252
vt 0.182185 0.511050
vt 0.266607 0.985500
vt 0.343184 0.953943
vt 0.331007 0.958876
vt 0.099910 0.875060
vt -0.000000 0.682821
vt 0.005804 0.600188
vt 0.106501 0.797219
vt 0.098727 0.780998
vt 0.052489 0.732590
vt 0.548874 0.795860
vt 0.550574 0.879892
vt 0.279975 0.466316
vt 0.342983 0.459113
vt 0.410918 0.983407
vt 0.220287 0.452614
vt 0.402411 0.438600
vt 0.465178 0.494349
vt 0.554594 0.558529
vt 0.623323 0.615572
vt 0.629690 0.678464
vt 0.592445 0.734985
vt 0.548382 0.786578
vt 0.542729 0.958957
vt 0.486132 1.000000
vt 0.483169 0.967441
vt 0.514567 0.950445
vt 0.313691 0.735402
vt 0.204489 0.569434
vt 0.494067 0.916674
vt 0.466339 0.936603
s 0
f 1/1/1 9/2/1 6/3/1
f 6/3/1 9/2/1 2/4/1
f 9/2/2 8/5/2 10/6/2
f 5/7/1 3/8/1 9/2/1
f 10/6/1 4/9/1 9/2/1
f 4/9/1 7/10/1 9/2/1
f 9/2/1 1/1/1 5/7/1
f 3/8/1 11/11/1 9/2/1
f 11/11/3 8/5/3 9/2/3
f 9/2/1 7/10/1 2/4/1
f 8/5/4 12/12/4 13/13/4 10/6/4
f 12/12/5 14/14/5 15/15/5 13/13/5
f 4/9/6 16/16/6 17/17/6 7/10/6
f 2/4/7 18/18/7 19/19/7 6/3/7
f 1/1/8 20/20/8 21/21/8 5/7/8
f 3/8/9 22/22/9 23/23/9 11/11/9
f 20/20/10 24/24/10 25/25/10 21/21/10
f 18/18/11 26/26/11 27/27/11 19/19/11
f 16/16/12 28/28/12 29/29/12 17/17/12
f 14/14/13 30/30/13 31/31/13 15/15/13
f 22/22/14 32/32/14 33/33/14 23/23/14
f 54/34/15 64/35/15 97/36/15 87/37/15
f 44/38/16 46/39/16 79/40/16 77/41/16
f 55/42/17 34/43/17 66/44/17 88/45/17
f 64/35/18 65/46/18 98/47/18 97/36/18
f 43/48/19 54/34/19 87/37/19 75/49/19
f 63/50/20 47/51/20 80/52/20 96/53/20
f 45/54/4 42/55/4 74/56/4 78/57/4
f 46/39/21 62/58/21 95/59/21 79/40/21
f 41/60/4 44/38/4 77/41/4 73/61/4
f 53/62/22 36/63/22 68/64/22 86/65/22
f 62/58/23 63/50/23 96/53/23 95/59/23
f 35/66/24 52/67/24 85/68/24 67/69/24
f 61/70/25 49/71/25 82/72/25 94/73/25
f 48/74/26 60/75/26 93/76/26 81/77/26
f 51/78/27 38/79/27 70/80/27 84/81/27
f 38/79/28 39/82/28 71/83/28 70/80/28
f 60/75/29 61/70/29 94/73/29 93/76/29
f 37/84/30 50/85/30 83/86/30 69/87/30
f 59/88/31 51/78/31 84/81/31 92/89/31
f 36/63/32 37/84/32 69/87/32 68/64/32
f 50/85/33 58/90/33 91/91/33 83/86/33
f 27/92/34 26/93/34 59/88/34 58/90/34
f 16/94/35 4/95/35 40/96/35 49/71/35
f 19/97/36 27/92/36 58/90/36 50/85/36
f 1/98/37 6/99/37 37/84/37 36/63/37
f 26/93/38 18/100/38 51/78/38 59/88/38
f 6/99/39 19/97/39 50/85/39 37/84/39
f 29/101/40 28/102/40 61/70/40 60/75/40
f 2/103/41 7/104/41 39/82/41 38/79/41
f 18/100/42 2/103/42 38/79/42 51/78/42
f 17/105/43 29/101/43 60/75/43 48/74/43
f 28/102/44 16/94/44 49/71/44 61/70/44
f 5/106/45 21/107/45 52/67/45 35/66/45
f 31/108/46 30/109/46 63/50/46 62/58/46
f 20/110/47 1/98/47 36/63/47 53/62/47
f 10/6/4 13/13/4 44/38/4 41/60/4
f 15/111/48 31/108/48 62/58/48 46/39/48
f 12/12/4 8/5/4 42/55/4 45/54/4
f 30/109/49 14/112/49 47/51/49 63/50/49
f 11/113/50 23/114/50 54/34/50 43/48/50
f 33/115/51 32/116/51 65/46/51 64/35/51
f 22/117/52 3/118/52 34/43/52 55/42/52
f 13/13/53 15/111/53 46/39/53 44/38/53
f 23/114/54 33/115/54 64/35/54 54/34/54
f 25/119/55 24/120/55 57/121/55 56/122/55
f 14/112/56 12/12/56 45/54/56 47/51/56
f 32/116/57 22/117/57 55/42/57 65/46/57
f 4/95/58 10/6/58 41/60/58 40/96/58
f 21/107/59 25/119/59 56/122/59 52/67/59
f 8/5/60 11/113/60 43/48/60 42/55/60
f 24/120/61 20/110/61 53/62/61 57/121/61
f 3/118/62 5/106/62 35/66/62 34/43/62
f 7/104/63 17/105/63 48/74/63 39/82/63
f 68/64/64 69/87/64 76/123/64
f 69/87/65 70/80/65 76/123/65
f 76/123/66 73/61/66 74/56/66
f 67/69/67 76/123/67 66/44/67
f 73/61/68 76/123/68 72/124/68
f 72/124/69 76/123/69 71/83/69
f 76/123/70 67/69/70 68/64/70
f 66/44/71 76/123/71 75/49/71
f 75/49/72 76/123/72 74/56/72
f 76/123/73 70/80/73 71/83/73
f 74/56/4 73/61/4 77/41/4 78/57/4
f 78/57/74 77/41/74 79/40/74 80/52/74
f 72/124/75 71/83/75 81/77/75 82/72/75
f 70/80/76 69/87/76 83/86/76 84/81/76
f 68/64/77 67/69/77 85/68/77 86/65/77
f 66/44/78 75/49/78 87/37/78 88/45/78
f 86/65/79 85/68/79 89/125/79 90/126/79
f 84/81/80 83/86/80 91/91/80 92/89/80
f 82/72/81 81/77/81 93/76/81 94/73/81
f 80/52/82 79/40/82 95/59/82 96/53/82
f 88/45/83 87/37/83 97/36/83 98/47/83
f 56/122/84 57/121/84 90/126/84 89/125/84
f 47/51/85 45/54/85 78/57/85 80/52/85
f 65/46/86 55/42/86 88/45/86 98/47/86
f 40/96/87 41/60/87 73/61/87 72/124/87
f 52/67/88 56/122/88 89/125/88 85/68/88
f 42/55/89 43/48/89 75/49/89 74/56/89
f 57/121/90 53/62/90 86/65/90 90/126/90
f 34/43/91 35/66/91 67/69/91 66/44/91
f 39/82/92 48/74/92 81/77/92 71/83/92
f 58/90/93 59/88/93 92/89/93 91/91/93
f 49/71/94 40/96/94 72/124/94 82/72/94
