# Blender 5.0.1
# www.blender.org
mtllib gr55477455ss.mtl
o Cube
v -16.591625 0.207216 16.591625
v -16.591625 0.490686 16.591625
v -16.591625 0.207216 -16.591625
v -16.591625 0.490686 -16.591625
v 16.591625 0.207216 16.591625
v 16.591625 0.490686 16.591625
v 16.591625 0.207216 -16.591625
v 16.591625 0.490686 -16.591625
vn -1.0000 -0.0000 -0.0000
vn -0.0000 -0.0000 -1.0000
vn 1.0000 -0.0000 -0.0000
vn -0.0000 -0.0000 1.0000
vn -0.0000 -1.0000 -0.0000
vn -0.0000 1.0000 -0.0000
vt 0.333333 0.333333
vt 0.000000 0.333333
vt 0.000000 0.000000
vt 0.333333 0.000000
vt 0.333333 0.666667
vt 0.000000 0.666667
vt 0.000000 0.333333
vt 0.333333 0.333333
vt 0.666667 0.333333
vt 0.333333 0.333333
vt 0.333333 0.000000
vt 0.666667 0.000000
vt 0.666667 0.666667
vt 0.333333 0.666667
vt 0.333333 0.333333
vt 0.666667 0.333333
vt 0.333333 0.666667
vt 0.333333 1.000000
vt 0.000000 1.000000
vt 0.000000 0.666667
vt 0.666667 0.666667
vt 0.666667 1.000000
vt 0.333333 1.000000
vt 0.333333 0.666667
s 0
usemtl Material.001
f 1/1/1 2/2/1 4/3/1 3/4/1
f 3/5/2 4/6/2 8/7/2 7/8/2
f 7/9/3 8/10/3 6/11/3 5/12/3
f 5/13/4 6/14/4 2/15/4 1/16/4
f 3/17/5 7/18/5 5/19/5 1/20/5
f 8/21/6 4/22/6 2/23/6 6/24/6
o Cube.001
v -11.688806 0.207216 12.029606
v -11.688806 0.913535 12.029606
v -11.826703 0.207216 -10.299779
v -11.826703 0.913535 -10.299779
v 16.591625 0.207216 16.591625
v 16.591625 0.913535 16.591625
v 16.591625 0.207216 -16.591625
v 16.591625 0.913535 -16.591625
v -13.720222 0.207216 -0.890078
v -13.720222 0.913535 -0.890078
v 0.969175 0.207216 -15.992145
v 0.969175 0.913535 -15.992145
v 16.591625 0.207216 0.000000
v 16.591625 0.913535 0.000000
v 8.763694 0.207216 14.620376
v 8.763694 0.913535 14.620376
v 2.249459 0.913535 0.000000
v 0.000000 0.207216 0.000000
v -14.565341 0.207216 6.105263
v -11.685894 0.913535 -7.816520
v -5.664969 0.207216 -14.290403
v -4.308384 0.913535 13.741625
v -11.685894 0.207216 -7.816520
v -14.565341 0.913535 6.105263
v -5.664969 0.913535 -14.290403
v -4.308384 0.207216 13.741625
v 4.060909 0.913535 8.287359
v 1.572968 0.913535 -8.182605
v -8.295813 0.913535 0.000000
v 0.000000 0.207216 8.295813
v 0.000000 0.207216 -8.295813
v -8.295813 0.207216 0.000000
v -8.295813 0.207216 -8.295813
v -8.295813 0.207216 8.295813
v -8.295813 0.913535 -8.295813
v -8.295813 0.913535 8.295813
vn -0.9984 -0.0000 0.0566
vn -0.0383 -0.0000 -0.9993
vn 1.0000 -0.0000 -0.0000
vn -0.2260 -0.0000 0.9741
vn -0.0000 -1.0000 -0.0000
vn -0.0000 1.0000 -0.0000
vn -0.2442 -0.0000 0.9697
vn -0.2485 -0.0000 -0.9686
vn -0.9928 -0.0000 -0.1199
vn -0.8996 -0.0000 0.4368
vn -0.5436 -0.0000 -0.8393
vn -0.0671 -0.0000 0.9977
vn -0.9595 -0.0000 -0.2818
vt 0.333333 0.083333
vt 0.000000 0.083333
vt 0.000000 0.000000
vt 0.333333 0.000000
vt 0.333333 0.500000
vt 0.000000 0.500000
vt 0.000000 0.333333
vt 0.333333 0.333333
vt 0.666667 0.166667
vt 0.333333 0.166667
vt 0.333333 0.000000
vt 0.666667 0.000000
vt 0.666667 0.416667
vt 0.333333 0.416667
vt 0.333333 0.333333
vt 0.666667 0.333333
vt 0.166667 0.833333
vt 0.166667 1.000000
vt 0.000000 1.000000
vt 0.000000 0.833333
vt 0.083333 0.833333
vt 0.416667 0.916667
vt 0.416667 1.000000
vt 0.333333 1.000000
vt 0.333333 0.916667
vt 0.500000 0.666667
vt 0.500000 0.833333
vt 0.416667 0.833333
vt 0.333333 0.833333
vt 0.333333 0.666667
vt 0.666667 0.666667
vt 0.666667 0.833333
vt 0.583333 0.833333
vt 0.583333 0.916667
vt 0.583333 1.000000
vt 0.500000 1.000000
vt 0.500000 0.916667
vt 0.083333 0.750000
vt 0.000000 0.750000
vt 0.250000 0.750000
vt 0.250000 0.833333
vt 0.166667 0.750000
vt 0.333333 0.833333
vt 0.333333 1.000000
vt 0.666667 0.666667
vt 0.333333 0.666667
vt 0.333333 0.500000
vt 0.666667 0.500000
vt 0.666667 0.333333
vt 0.333333 0.333333
vt 0.333333 0.583333
vt 0.000000 0.583333
vt 0.333333 0.250000
vt 0.000000 0.250000
vt 0.000000 0.166667
vt 0.333333 0.166667
vt 0.333333 0.333333
vt 0.000000 0.333333
vt 0.333333 0.666667
vt 0.000000 0.666667
vt 0.250000 0.666667
vt 0.166667 0.666667
vt 0.333333 0.666667
vt 0.333333 0.750000
vt 0.083333 0.666667
vt 0.000000 0.666667
vt 0.666667 0.916667
vt 0.666667 1.000000
s 0
usemtl Material.002
f 31/25/7 28/26/7 12/27/7 11/28/7
f 19/29/8 20/30/8 16/31/8 15/32/8
f 21/33/9 22/34/9 14/35/9 13/36/9
f 34/37/10 30/38/10 10/39/10 9/40/10
f 26/41/11 21/42/11 13/43/11 23/44/11 38/45/11
f 44/46/12 32/47/12 10/48/12 30/49/12
f 22/50/12 25/51/12 35/52/12 24/53/12 14/54/12
f 16/55/12 20/56/12 36/57/12 25/51/12 22/50/12
f 43/58/12 28/59/12 18/60/12 37/61/12
f 42/62/11 38/45/11 23/44/11 34/63/11
f 41/64/11 39/65/11 26/41/11 40/66/11
f 19/67/11 15/68/11 21/42/11 26/41/11 39/65/11
f 13/69/13 14/70/13 24/71/13 23/72/13
f 15/73/9 16/74/9 22/34/9 21/33/9
f 29/75/14 33/76/14 20/30/14 19/29/14
f 27/77/15 32/78/15 18/79/15 17/80/15
f 9/81/16 10/82/16 32/78/16 27/77/16
f 11/83/17 12/84/17 33/76/17 29/75/17
f 31/85/11 41/64/11 40/66/11 17/86/11
f 11/87/11 29/88/11 41/64/11 31/85/11
f 29/88/11 19/67/11 39/65/11 41/64/11
f 27/89/11 42/62/11 34/63/11 9/90/11
f 17/86/11 40/66/11 42/62/11 27/89/11
f 40/66/11 26/41/11 38/45/11 42/62/11
f 36/57/12 43/58/12 37/61/12 25/51/12
f 20/56/12 33/91/12 43/58/12 36/57/12
f 33/91/12 12/92/12 28/59/12 43/58/12
f 35/52/12 44/46/12 30/49/12 24/53/12
f 25/51/12 37/61/12 44/46/12 35/52/12
f 37/61/12 18/60/12 32/47/12 44/46/12
f 23/72/18 24/71/18 30/38/18 34/37/18
f 17/80/19 18/79/19 28/26/19 31/25/19
o Cube.002
v -9.470161 0.207216 11.597253
v -9.470161 1.478845 11.597253
v -9.593109 0.207216 -10.045310
v -9.593109 1.478845 -10.045310
v 16.591625 0.207216 13.659474
v 16.591625 1.478845 13.659474
v 16.591625 0.207216 -14.247004
v 16.591625 1.478845 -14.247004
v -13.001586 0.207216 -0.583189
v -13.001586 1.478845 -0.583189
v 6.129070 0.207216 -13.348358
v 6.129070 1.478845 -13.348358
v 16.591625 0.207216 0.000000
v 16.591625 1.478845 0.000000
v 9.133510 0.207216 13.886460
v 9.133510 1.478845 13.886460
v 2.249459 1.478845 0.000000
v 0.000000 0.207216 0.000000
v -11.936279 0.207216 6.657845
v -11.324255 1.478845 -6.870617
v -4.721528 0.207215 -12.490111
v -3.250765 1.478845 13.073158
v -11.324255 0.207216 -6.870617
v -11.936279 1.478845 6.657845
v -4.721528 1.478845 -12.490111
v -3.250765 0.207216 13.073158
v 4.957870 1.781122 7.566008
v 2.838430 1.497903 -7.994996
v -7.711071 1.249263 0.070396
v 0.000000 0.207216 8.295813
v 0.000000 0.207216 -8.295813
v -8.295813 0.207216 0.000000
v -8.295813 0.207216 -8.295813
v -8.295813 0.207216 8.295813
v -6.744702 1.440989 -7.553918
v -6.373653 1.334837 7.753291
vn -0.8780 -0.0000 -0.4787
vn -0.0856 -0.0000 -0.9963
vn 1.0000 -0.0000 -0.0000
vn -0.2309 -0.0000 0.9730
vn -0.0000 -1.0000 -0.0000
vn 0.0173 0.9996 -0.0235
vn 0.0133 0.9999 -0.0066
vn 0.0007 1.0000 0.0002
vn 0.0271 0.9995 0.0189
vn 0.0304 -0.0000 0.9995
vn -0.0789 -0.0000 -0.9969
vn -0.9894 -0.0000 0.1456
vn -0.8947 -0.0000 0.4467
vn -0.4485 -0.0000 -0.8938
vn -0.0143 0.9998 0.0121
vn -0.0028 1.0000 0.0004
vn 0.0066 0.9999 0.0077
vn -0.0195 0.9995 0.0258
vn -0.0319 0.9993 -0.0169
vn 0.0363 0.9993 -0.0116
vn -0.0655 -0.0000 0.9979
vn -0.9662 -0.0000 -0.2578
vt 0.333333 0.083333
vt 0.000000 0.083333
vt 0.000000 0.000000
vt 0.333333 0.000000
vt 0.333333 0.500000
vt 0.000000 0.500000
vt 0.000000 0.333333
vt 0.333333 0.333333
vt 0.666667 0.166667
vt 0.333333 0.166667
vt 0.333333 0.000000
vt 0.666667 0.000000
vt 0.666667 0.416667
vt 0.333333 0.416667
vt 0.333333 0.333333
vt 0.666667 0.333333
vt 0.166667 0.833333
vt 0.166667 1.000000
vt 0.000000 1.000000
vt 0.000000 0.833333
vt 0.083333 0.833333
vt 0.416667 0.916667
vt 0.416667 1.000000
vt 0.333333 1.000000
vt 0.333333 0.916667
vt 0.500000 0.666667
vt 0.500000 0.833333
vt 0.416667 0.833333
vt 0.333333 0.833333
vt 0.333333 0.666667
vt 0.666667 0.666667
vt 0.666667 0.833333
vt 0.583333 0.833333
vt 0.583333 0.916667
vt 0.583333 1.000000
vt 0.500000 1.000000
vt 0.500000 0.916667
vt 0.083333 0.750000
vt 0.000000 0.750000
vt 0.250000 0.750000
vt 0.250000 0.833333
vt 0.166667 0.750000
vt 0.333333 0.833333
vt 0.333333 1.000000
vt 0.666667 0.666667
vt 0.333333 0.666667
vt 0.333333 0.500000
vt 0.666667 0.500000
vt 0.666667 0.333333
vt 0.333333 0.333333
vt 0.333333 0.583333
vt 0.000000 0.583333
vt 0.333333 0.250000
vt 0.000000 0.250000
vt 0.000000 0.166667
vt 0.333333 0.166667
vt 0.333333 0.333333
vt 0.000000 0.333333
vt 0.333333 0.666667
vt 0.000000 0.666667
vt 0.250000 0.666667
vt 0.166667 0.666667
vt 0.333333 0.666667
vt 0.333333 0.750000
vt 0.083333 0.666667
vt 0.000000 0.666667
vt 0.666667 0.916667
vt 0.666667 1.000000
s 0
usemtl Material.003
f 67/93/20 64/94/20 48/95/20 47/96/20
f 55/97/21 56/98/21 52/99/21 51/100/21
f 57/101/22 58/102/22 50/103/22 49/104/22
f 70/105/23 66/106/23 46/107/23 45/108/23
f 62/109/24 57/110/24 49/111/24 59/112/24 74/113/24
f 80/114/25 68/115/25 46/116/25 66/117/25
f 58/118/26 61/119/26 71/120/26 60/121/26 50/122/26
f 52/123/27 56/124/27 72/125/27 61/119/27 58/118/27
f 79/126/28 64/127/28 54/128/28 73/129/28
f 78/130/24 74/113/24 59/112/24 70/131/24
f 77/132/24 75/133/24 62/109/24 76/134/24
f 55/135/24 51/136/24 57/110/24 62/109/24 75/133/24
f 49/137/29 50/138/29 60/139/29 59/140/29
f 51/141/22 52/142/22 58/102/22 57/101/22
f 65/143/30 69/144/30 56/98/30 55/97/30
f 63/145/31 68/146/31 54/147/31 53/148/31
f 45/149/32 46/150/32 68/146/32 63/145/32
f 47/151/33 48/152/33 69/144/33 65/143/33
f 67/153/24 77/132/24 76/134/24 53/154/24
f 47/155/24 65/156/24 77/132/24 67/153/24
f 65/156/24 55/135/24 75/133/24 77/132/24
f 63/157/24 78/130/24 70/131/24 45/158/24
f 53/154/24 76/134/24 78/130/24 63/157/24
f 76/134/24 62/109/24 74/113/24 78/130/24
f 72/125/34 79/126/34 73/129/34 61/119/34
f 56/124/35 69/159/35 79/126/35 72/125/35
f 69/159/36 48/160/36 64/127/36 79/126/36
f 71/120/37 80/114/37 66/117/37 60/121/37
f 61/119/38 73/129/38 80/114/38 71/120/38
f 73/129/39 54/128/39 68/115/39 80/114/39
f 59/140/40 60/139/40 66/106/40 70/105/40
f 53/148/41 54/147/41 64/94/41 67/93/41
