# Blender 5.0.1
# www.blender.org
mtllib grass.mtl
o Cube.002
v -11.888824 0.468735 1.154027
v -11.888824 1.123316 1.154027
v -15.298339 0.468735 -16.591625
v -15.298339 1.123317 -16.591625
v 16.591625 0.468735 11.543735
v 16.591625 1.123317 11.543735
v 16.591625 0.468735 -16.591625
v 16.591625 1.123317 -16.591625
v -13.607529 0.468735 -6.589458
v -13.607529 1.123317 -6.589458
v 0.000000 0.468735 -16.591625
v 0.000000 1.123317 -16.591625
v 16.591625 0.468735 -3.041450
v 16.591625 1.123317 -3.041451
v 1.014039 0.468735 7.371284
v 1.014039 1.123317 7.371284
v 0.000000 1.123317 -3.041451
v 0.000000 0.468735 -3.041451
v -6.802943 1.123317 6.552478
v -6.802943 0.468735 6.552478
v -16.591627 0.207216 16.591627
v -16.591627 0.490686 16.591627
v -16.591627 0.207216 -16.591627
v -16.591627 0.490686 -16.591627
v 16.591627 0.207216 16.591627
v 16.591627 0.490686 16.591627
v 16.591627 0.207216 -16.591627
v 16.591627 0.490686 -16.591627
v -12.954106 0.468735 3.261165
v -12.954106 0.752205 3.261165
v -16.591627 0.468735 -16.591627
v -16.591627 0.752206 -16.591627
v 16.591627 0.468735 13.849376
v 16.591627 0.752206 13.849376
v 16.591627 0.468735 -16.591627
v 16.591627 0.752206 -16.591627
v -15.063266 0.468735 -5.559938
v -15.063266 0.752206 -5.559937
v 0.000000 0.468735 -16.591627
v 0.000000 0.752206 -16.591627
v 16.591627 0.468735 -3.041450
v 16.591627 0.752206 -3.041451
v 0.000000 0.468735 10.508725
v 0.000000 0.752206 10.508725
v 0.000000 0.752206 -3.041451
v 0.000000 0.468735 -3.041451
v -7.705622 0.752206 7.319549
v -7.705622 0.468735 7.319549
vn -0.9860 -0.0000 0.1667
vn -0.0000 -0.0000 -1.0000
vn 1.0000 -0.0000 -0.0000
vn -0.7279 -0.0000 0.6857
vn -0.0000 -1.0000 -0.0000
vn -0.0000 1.0000 -0.0000
vn -0.2587 -0.0000 0.9659
vn -0.9762 -0.0000 0.2167
vn -0.1042 -0.0000 0.9946
vn -1.0000 -0.0000 -0.0000
vn -0.0000 -0.0000 1.0000
vn -0.9905 -0.0000 0.1372
vn -0.6117 -0.0000 0.7911
vn -0.1974 -0.0000 0.9803
vn -0.9726 -0.0000 0.2325
vn -0.3824 -0.0000 0.9240
vt 0.333333 0.166667
vt 0.000000 0.166667
vt 0.000000 0.000000
vt 0.333333 0.000000
vt 0.333333 0.500000
vt 0.000000 0.500000
vt 0.000000 0.333333
vt 0.333333 0.333333
vt 0.666667 0.166667
vt 0.333333 0.166667
vt 0.333333 0.000000
vt 0.666667 0.000000
vt 0.666667 0.416667
vt 0.333333 0.416667
vt 0.333333 0.333333
vt 0.666667 0.333333
vt 0.166667 0.833333
vt 0.166667 1.000000
vt 0.000000 1.000000
vt 0.000000 0.833333
vt 0.500000 0.833333
vt 0.500000 1.000000
vt 0.333333 1.000000
vt 0.333333 0.916667
vt 0.500000 0.666667
vt 0.333333 0.833333
vt 0.333333 0.666667
vt 0.666667 0.666667
vt 0.666667 0.833333
vt 0.666667 1.000000
vt 0.166667 0.666667
vt 0.000000 0.750000
vt 0.000000 0.666667
vt 0.333333 0.666667
vt 0.333333 0.833333
vt 0.333333 1.000000
vt 0.666667 0.666667
vt 0.333333 0.666667
vt 0.333333 0.500000
vt 0.666667 0.500000
vt 0.666667 0.333333
vt 0.333333 0.333333
vt 0.333333 0.666667
vt 0.000000 0.666667
vt 0.333333 0.333333
vt 0.000000 0.333333
s 0
usemtl Material.004
f 9/1/1 10/2/1 4/3/1 3/4/1
f 11/5/2 12/6/2 8/7/2 7/8/2
f 13/9/3 14/10/3 6/11/3 5/12/3
f 20/13/4 19/14/4 2/15/4 1/16/4
f 18/17/5 13/18/5 5/19/5 15/20/5
f 17/21/6 10/22/6 2/23/6 19/24/6
f 14/25/6 17/21/6 16/26/6 6/27/6
f 8/28/6 12/29/6 17/21/6 14/25/6
f 12/29/6 4/30/6 10/22/6 17/21/6
f 9/31/5 18/17/5 20/32/5 1/33/5
f 3/34/5 11/35/5 18/17/5 9/31/5
f 11/35/5 7/36/5 13/18/5 18/17/5
f 5/37/7 6/38/7 16/39/7 15/40/7
f 7/41/3 8/42/3 14/10/3 13/9/3
f 3/43/2 4/44/2 12/6/2 11/5/2
f 1/45/8 2/46/8 10/2/8 9/1/8
f 15/40/9 16/39/9 19/14/9 20/13/9
f 19/24/6 16/26/6 17/21/6
f 20/32/5 18/17/5 15/20/5
usemtl Material.001
f 21/45/10 22/46/10 24/3/10 23/4/10
f 23/43/2 24/44/2 28/7/2 27/8/2
f 27/41/3 28/42/3 26/11/3 25/12/3
f 25/37/11 26/38/11 22/15/11 21/16/11
f 23/34/5 27/36/5 25/19/5 21/33/5
f 28/28/6 24/30/6 22/23/6 26/27/6
usemtl Material.002
f 37/1/12 38/2/12 32/3/12 31/4/12
f 39/5/2 40/6/2 36/7/2 35/8/2
f 41/9/3 42/10/3 34/11/3 33/12/3
f 48/13/13 47/14/13 30/15/13 29/16/13
f 46/17/5 41/18/5 33/19/5 43/20/5
f 45/21/6 38/22/6 30/23/6 47/24/6
f 42/25/6 45/21/6 44/26/6 34/27/6
f 36/28/6 40/29/6 45/21/6 42/25/6
f 40/29/6 32/30/6 38/22/6 45/21/6
f 37/31/5 46/17/5 48/32/5 29/33/5
f 31/34/5 39/35/5 46/17/5 37/31/5
f 39/35/5 35/36/5 41/18/5 46/17/5
f 33/37/14 34/38/14 44/39/14 43/40/14
f 35/41/3 36/42/3 42/10/3 41/9/3
f 31/43/2 32/44/2 40/6/2 39/5/2
f 29/45/15 30/46/15 38/2/15 37/1/15
f 43/40/16 44/39/16 47/14/16 48/13/16
f 47/24/6 44/26/6 45/21/6
f 48/32/5 46/17/5 43/20/5
